<?xml version="1.0" standalone="no"?>
<!DOCTYPE svg PUBLIC "-//W3C//DTD SVG 1.1//EN" "http://www.w3.org/Graphics/SVG/1.1/DTD/svg11.dtd">
<svg version="1.1" xmlns="http://www.w3.org/2000/svg" viewBox="0 0 158.3203125 209.421875" width="158.3203125" height="209.421875"><!-- svg-source:excalidraw --><metadata></metadata><defs><style class="style-fonts">
      </style></defs><g transform="translate(116.4140625 29.203125) rotate(0 -38.06640625 75.5078125)" stroke="none"><path fill="#1e1e1e" d="M -2.47,0.91 Q -2.47,0.91 -2.98,-0.58 -3.50,-2.09 -4.41,-3.33 -5.33,-4.57 -6.29,-5.52 -7.25,-6.46 -8.26,-7.41 -9.28,-8.36 -10.59,-9.23 -11.90,-10.11 -13.09,-11.16 -14.29,-12.22 -15.46,-12.58 -16.63,-12.94 -17.77,-13.35 -18.91,-13.77 -19.82,-14.33 -20.73,-14.90 -22.66,-14.91 -24.58,-14.92 -26.51,-14.94 -28.43,-14.96 -30.42,-14.98 -32.41,-15.00 -34.41,-15.01 -36.40,-15.03 -38.40,-15.04 -40.40,-15.05 -42.12,-15.04 -43.83,-15.03 -45.77,-15.38 -47.71,-15.74 -49.24,-15.82 -50.77,-15.90 -52.62,-15.92 -54.47,-15.95 -55.74,-15.99 -57.00,-16.03 -58.12,-16.05 -59.23,-16.07 -61.30,-16.08 -63.36,-16.09 -64.71,-15.91 -66.06,-15.73 -67.15,-15.39 -68.23,-15.04 -70.30,-14.49 -72.37,-13.93 -73.33,-13.21 -74.28,-12.49 -75.75,-11.40 -77.22,-10.30 -78.17,-9.45 -79.11,-8.59 -80.64,-7.42 -82.16,-6.24 -83.16,-5.70 -84.15,-5.16 -85.63,-4.20 -87.11,-3.23 -87.97,-2.10 -88.84,-0.97 -89.81,0.43 -90.78,1.84 -91.64,3.38 -92.51,4.93 -93.01,5.87 -93.50,6.81 -93.98,7.93 -94.46,9.04 -95.45,11.44 -96.45,13.84 -97.10,15.32 -97.75,16.81 -98.33,18.30 -98.91,19.78 -99.11,21.07 -99.31,22.35 -99.82,24.26 -100.33,26.17 -100.46,27.45 -100.60,28.72 -100.65,30.09 -100.71,31.45 -101.22,33.78 -101.72,36.11 -101.85,37.61 -101.98,39.11 -102.39,41.05 -102.81,42.98 -103.29,44.74 -103.78,46.51 -103.89,47.70 -104.01,48.89 -104.05,50.21 -104.08,51.53 -104.10,52.95 -104.11,54.38 -104.11,55.85 -104.11,57.32 -104.17,59.14 -104.23,60.96 -104.24,62.64 -104.25,64.32 -104.31,66.24 -104.37,68.15 -104.37,69.87 -104.37,71.59 -104.35,73.18 -104.34,74.77 -104.31,76.31 -104.29,77.85 -104.33,79.70 -104.37,81.56 -104.36,83.25 -104.36,84.94 -104.34,86.52 -104.32,88.10 -104.30,89.63 -104.28,91.17 -104.25,92.68 -104.23,94.20 -104.22,95.70 -104.20,97.21 -104.15,98.42 -104.10,99.64 -104.08,101.02 -104.06,102.40 -104.05,103.85 -104.04,105.30 -104.03,106.77 -104.03,108.25 -103.81,109.91 -103.60,111.57 -103.43,113.01 -103.26,114.46 -102.97,116.11 -102.68,117.76 -102.49,119.18 -102.29,120.60 -101.99,122.25 -101.69,123.90 -101.27,125.48 -100.84,127.07 -100.36,128.24 -99.87,129.42 -99.36,130.46 -98.85,131.50 -98.12,132.73 -97.40,133.96 -96.73,135.13 -96.06,136.30 -95.45,137.77 -94.83,139.24 -94.30,140.33 -93.77,141.43 -93.05,142.68 -92.32,143.93 -91.49,144.96 -90.66,145.99 -89.89,147.14 -89.11,148.30 -88.47,149.37 -87.84,150.44 -86.62,151.78 -85.40,153.12 -84.64,154.21 -83.87,155.31 -83.14,156.15 -82.40,156.99 -80.61,158.44 -78.81,159.89 -76.90,160.90 -74.99,161.90 -73.84,162.44 -72.68,162.97 -71.45,163.46 -70.21,163.96 -69.00,164.48 -67.79,165.00 -66.53,165.49 -65.26,165.98 -62.62,166.58 -59.98,167.18 -58.81,167.30 -57.64,167.43 -56.33,167.50 -55.01,167.57 -53.59,167.61 -52.16,167.65 -50.98,167.63 -49.79,167.62 -48.43,167.63 -47.07,167.63 -45.62,167.65 -44.18,167.66 -42.71,167.68 -41.23,167.69 -39.40,167.77 -37.57,167.85 -35.90,167.88 -34.22,167.91 -32.64,167.91 -31.07,167.92 -29.54,167.92 -28.01,167.91 -26.32,167.69 -24.63,167.47 -23.40,167.06 -22.17,166.64 -21.11,166.16 -20.06,165.69 -19.06,165.18 -18.06,164.68 -16.55,163.65 -15.05,162.62 -14.08,162.08 -13.11,161.54 -12.13,161.01 -11.15,160.48 -10.16,159.97 -9.17,159.45 -8.18,158.93 -7.19,158.42 -6.19,157.90 -5.20,157.39 -4.21,156.88 -3.21,156.37 -2.00,155.68 -0.79,154.98 0.21,154.18 1.21,153.39 2.22,152.49 3.23,151.59 4.23,150.63 5.24,149.68 6.69,148.62 8.13,147.57 9.16,146.45 10.18,145.33 10.85,144.10 11.52,142.86 12.53,141.52 13.53,140.18 14.49,138.85 15.45,137.53 16.08,136.23 16.70,134.92 17.26,133.51 17.82,132.10 18.35,130.83 18.87,129.56 19.35,128.25 19.83,126.94 20.33,125.70 20.83,124.47 21.30,123.18 21.78,121.89 22.34,120.20 22.90,118.51 23.11,117.00 23.32,115.49 23.80,113.51 24.28,111.52 24.88,109.41 25.48,107.29 26.09,105.11 26.69,102.92 27.30,100.70 27.90,98.48 28.05,97.01 28.20,95.54 28.28,93.80 28.36,92.06 28.45,90.04 28.53,88.02 28.60,85.88 28.67,83.74 28.64,81.93 28.62,80.13 28.56,78.49 28.51,76.86 28.46,75.31 28.41,73.75 28.36,72.23 28.31,70.70 28.25,69.48 28.18,68.26 28.11,67.16 28.04,66.07 27.94,64.01 27.83,61.96 27.74,60.23 27.64,58.51 27.57,57.38 27.49,56.25 27.40,54.72 27.31,53.20 27.26,51.91 27.22,50.62 27.19,49.03 27.16,47.45 27.14,46.06 27.11,44.66 27.09,43.06 27.08,41.46 27.08,39.65 27.08,37.84 26.87,35.93 26.67,34.02 26.25,32.05 25.83,30.07 25.35,28.09 24.88,26.11 24.13,24.64 23.39,23.18 23.00,21.83 22.60,20.49 22.40,19.03 22.21,17.56 21.80,15.86 21.39,14.16 20.72,12.25 20.04,10.35 19.62,8.92 19.20,7.50 18.79,6.46 18.37,5.42 16.98,4.15 15.59,2.88 14.65,1.90 13.71,0.92 12.74,-0.07 11.78,-1.07 10.80,-2.08 9.83,-3.09 8.70,-4.02 7.57,-4.96 6.54,-5.61 5.51,-6.25 4.51,-6.79 3.50,-7.34 2.50,-7.84 1.50,-8.35 0.60,-8.94 -0.28,-9.52 -1.58,-10.58 -2.87,-11.64 -4.43,-11.97 -5.99,-12.30 -7.32,-12.36 -8.65,-12.43 -9.13,-12.54 -9.60,-12.66 -10.02,-12.92 -10.44,-13.18 -10.75,-13.56 -11.06,-13.94 -11.23,-14.40 -11.41,-14.86 -11.42,-15.35 -11.44,-15.84 -11.30,-16.32 -11.16,-16.79 -10.87,-17.19 -10.59,-17.59 -10.19,-17.88 -9.79,-18.17 -9.33,-18.32 -8.86,-18.46 -8.37,-18.45 -7.87,-18.44 -7.41,-18.28 -6.95,-18.11 -6.56,-17.81 -6.18,-17.50 -5.91,-17.09 -5.64,-16.68 -5.52,-16.20 -5.40,-15.72 -5.43,-15.23 -5.47,-14.74 -5.66,-14.29 -5.85,-13.84 -6.18,-13.47 -6.50,-13.10 -6.93,-12.86 -7.36,-12.61 -7.84,-12.51 -8.32,-12.42 -8.81,-12.48 -9.30,-12.54 -9.74,-12.76 -10.18,-12.98 -10.53,-13.32 -10.88,-13.67 -11.10,-14.10 -11.32,-14.54 -11.39,-15.03 -11.46,-15.52 -11.37,-16.00 -11.28,-16.48 -11.05,-16.91 -10.81,-17.34 -10.44,-17.67 -10.08,-18.00 -9.63,-18.20 -9.18,-18.40 -8.69,-18.44 -8.20,-18.49 -8.20,-18.49 -8.20,-18.49 -5.57,-18.09 -2.95,-17.70 -1.83,-17.29 -0.72,-16.88 0.61,-15.90 1.94,-14.91 2.97,-14.00 4.00,-13.09 5.05,-12.52 6.09,-11.95 7.20,-11.31 8.31,-10.67 9.54,-9.88 10.77,-9.09 12.23,-8.02 13.69,-6.95 14.70,-5.97 15.71,-5.00 16.71,-4.03 17.71,-3.07 18.69,-2.12 19.66,-1.18 20.59,-0.28 21.51,0.60 22.58,1.82 23.64,3.03 24.21,4.32 24.77,5.61 25.29,6.98 25.81,8.34 26.27,9.52 26.72,10.71 27.22,12.51 27.73,14.32 28.10,15.73 28.47,17.13 28.53,18.59 28.58,20.04 29.15,21.00 29.72,21.97 30.22,23.19 30.72,24.42 31.22,26.42 31.73,28.43 32.23,30.54 32.73,32.66 33.10,35.25 33.48,37.84 33.47,39.65 33.47,41.46 33.46,43.06 33.44,44.66 33.42,46.06 33.39,47.45 33.36,49.03 33.33,50.62 33.29,51.91 33.25,53.20 33.15,54.72 33.06,56.25 32.99,57.38 32.91,58.51 32.82,60.23 32.73,61.96 32.62,64.01 32.51,66.07 32.44,67.17 32.38,68.26 32.31,69.48 32.24,70.71 32.19,72.23 32.14,73.75 32.09,75.31 32.03,76.87 31.97,78.50 31.91,80.14 31.87,81.96 31.83,83.77 31.87,85.93 31.90,88.09 31.90,90.17 31.90,92.25 31.78,94.16 31.66,96.06 31.34,97.66 31.02,99.25 30.53,101.49 30.03,103.73 29.57,105.94 29.11,108.14 28.72,110.25 28.33,112.36 28.02,114.22 27.72,116.08 27.48,117.92 27.25,119.76 26.77,121.66 26.30,123.56 25.76,124.98 25.23,126.40 24.72,127.49 24.20,128.58 23.65,130.01 23.10,131.45 22.55,132.60 22.00,133.75 21.38,135.31 20.77,136.87 19.98,138.51 19.19,140.14 18.22,141.58 17.24,143.01 16.43,144.05 15.61,145.09 14.70,146.76 13.79,148.44 12.49,149.99 11.20,151.54 10.02,152.49 8.85,153.44 7.81,154.45 6.77,155.47 5.67,156.50 4.57,157.53 3.31,158.57 2.04,159.61 0.67,160.50 -0.70,161.39 -1.71,161.88 -2.71,162.37 -3.71,162.85 -4.72,163.34 -5.72,163.83 -6.72,164.31 -7.71,164.79 -8.71,165.27 -9.69,165.74 -10.66,166.22 -12.43,167.08 -14.19,167.95 -15.13,168.49 -16.06,169.04 -17.20,169.50 -18.33,169.97 -19.60,170.43 -20.87,170.89 -22.40,171.32 -23.93,171.74 -25.96,172.13 -28.00,172.51 -29.53,172.51 -31.07,172.51 -32.64,172.51 -34.22,172.52 -35.90,172.55 -37.57,172.58 -39.40,172.66 -41.23,172.73 -42.71,172.75 -44.19,172.76 -45.64,172.77 -47.09,172.78 -48.47,172.77 -49.85,172.77 -51.05,172.73 -52.26,172.69 -53.76,172.68 -55.26,172.66 -56.77,172.58 -58.28,172.51 -59.70,172.31 -61.12,172.12 -62.74,171.81 -64.36,171.50 -65.72,171.21 -67.08,170.92 -68.52,170.41 -69.95,169.89 -71.03,169.41 -72.11,168.92 -73.55,168.39 -74.99,167.85 -76.07,167.33 -77.16,166.81 -78.65,166.15 -80.14,165.49 -81.28,164.70 -82.42,163.91 -83.30,163.11 -84.19,162.32 -85.32,161.41 -86.45,160.50 -87.88,158.58 -89.32,156.66 -90.77,154.78 -92.23,152.91 -92.74,151.92 -93.26,150.93 -93.84,149.95 -94.42,148.97 -95.44,147.68 -96.46,146.38 -97.34,144.92 -98.22,143.45 -98.73,142.25 -99.25,141.04 -99.74,139.81 -100.23,138.57 -100.81,137.43 -101.39,136.30 -102.25,134.84 -103.10,133.38 -103.58,132.18 -104.05,130.99 -104.53,129.61 -105.00,128.22 -105.50,126.50 -105.99,124.78 -106.40,122.94 -106.81,121.11 -106.91,119.86 -107.01,118.62 -107.42,116.75 -107.83,114.89 -107.92,113.59 -108.01,112.30 -108.40,110.28 -108.79,108.26 -108.78,106.78 -108.78,105.30 -108.77,103.85 -108.76,102.40 -108.74,101.02 -108.72,99.64 -108.67,98.42 -108.62,97.21 -108.60,95.70 -108.58,94.20 -108.56,92.68 -108.54,91.17 -108.52,89.63 -108.50,88.10 -108.48,86.52 -108.46,84.94 -108.45,83.25 -108.45,81.56 -108.49,79.70 -108.53,77.85 -108.51,76.31 -108.48,74.77 -108.46,73.18 -108.44,71.59 -108.44,69.87 -108.45,68.15 -108.50,66.23 -108.56,64.31 -108.57,62.63 -108.57,60.95 -108.62,59.11 -108.66,57.27 -108.63,55.77 -108.61,54.27 -108.55,52.77 -108.49,51.27 -108.36,49.76 -108.24,48.26 -107.96,46.85 -107.69,45.45 -107.26,43.82 -106.83,42.20 -106.53,40.45 -106.23,38.70 -106.06,37.08 -105.89,35.45 -105.69,33.33 -105.49,31.21 -105.40,29.67 -105.31,28.14 -105.11,26.66 -104.90,25.19 -104.61,23.38 -104.31,21.58 -104.05,19.83 -103.78,18.08 -103.28,16.49 -102.78,14.90 -102.22,13.21 -101.67,11.52 -100.87,9.18 -100.08,6.85 -99.55,5.41 -99.03,3.97 -98.53,2.97 -98.02,1.97 -97.49,0.97 -96.97,-0.02 -95.92,-1.55 -94.88,-3.07 -93.66,-4.70 -92.44,-6.32 -91.40,-7.44 -90.36,-8.57 -88.76,-9.60 -87.16,-10.64 -85.77,-11.40 -84.38,-12.17 -83.18,-13.24 -81.97,-14.30 -80.57,-15.23 -79.18,-16.15 -77.70,-17.26 -76.23,-18.37 -75.14,-18.92 -74.05,-19.46 -72.04,-19.98 -70.02,-20.51 -68.57,-21.00 -67.12,-21.49 -65.25,-21.90 -63.38,-22.31 -61.31,-22.32 -59.23,-22.33 -58.11,-22.34 -57.00,-22.36 -55.72,-22.40 -54.44,-22.44 -52.52,-22.44 -50.59,-22.43 -48.96,-22.31 -47.33,-22.20 -46.14,-21.79 -44.95,-21.39 -43.68,-21.37 -42.40,-21.34 -40.40,-21.35 -38.40,-21.36 -36.40,-21.37 -34.40,-21.38 -32.41,-21.40 -30.41,-21.41 -28.42,-21.42 -26.44,-21.44 -24.50,-21.43 -22.57,-21.42 -20.82,-21.21 -19.08,-21.01 -17.32,-20.10 -15.56,-19.19 -13.84,-18.64 -12.12,-18.10 -10.59,-16.91 -9.06,-15.72 -8.11,-14.85 -7.16,-13.97 -5.64,-12.71 -4.11,-11.46 -3.10,-10.32 -2.10,-9.17 -0.99,-7.65 0.11,-6.13 0.69,-5.00 1.27,-3.88 1.87,-2.40 2.47,-0.91 2.54,-0.60 2.61,-0.30 2.61,0.01 2.61,0.33 2.53,0.64 2.45,0.95 2.30,1.23 2.16,1.51 1.94,1.74 1.73,1.98 1.47,2.16 1.20,2.34 0.91,2.45 0.61,2.56 0.29,2.60 -0.01,2.63 -0.33,2.59 -0.64,2.55 -0.94,2.44 -1.24,2.32 -1.50,2.14 -1.76,1.96 -1.97,1.72 -2.18,1.48 -2.32,1.20 -2.47,0.91 -2.47,0.91 L -2.47,0.91 Z"></path></g><g transform="translate(18.3359375 38.94921875) rotate(0 62.154296875 31.98828125)" stroke="none"><path fill="#1e1e1e" d="M 0.66,-2.53 Q 0.66,-2.53 1.93,-2.19 3.20,-1.86 4.46,-1.40 5.72,-0.94 6.72,-0.39 7.72,0.14 9.50,1.04 11.28,1.94 12.26,2.42 13.24,2.90 14.23,3.39 15.22,3.89 16.75,4.95 18.28,6.01 19.33,6.73 20.38,7.44 21.73,8.51 23.09,9.58 24.17,10.37 25.24,11.15 26.96,12.08 28.69,13.01 29.57,13.61 30.46,14.22 31.76,15.14 33.06,16.06 34.33,16.66 35.61,17.27 37.12,18.24 38.64,19.21 40.21,20.08 41.78,20.95 43.07,21.40 44.36,21.86 45.80,22.34 47.23,22.82 48.14,23.40 49.06,23.98 50.15,24.52 51.25,25.06 53.13,25.52 55.00,25.97 56.90,26.91 58.80,27.84 60.11,28.66 61.42,29.48 63.03,30.06 64.64,30.64 65.79,31.10 66.94,31.57 68.02,32.18 69.10,32.78 70.55,33.94 72.01,35.10 73.83,36.03 75.64,36.96 76.69,37.32 77.74,37.68 78.63,38.26 79.52,38.85 81.08,39.72 82.65,40.59 83.60,41.09 84.54,41.60 85.52,42.11 86.49,42.62 87.40,43.23 88.31,43.85 89.39,44.35 90.48,44.85 91.86,45.41 93.24,45.97 94.37,46.38 95.51,46.79 96.83,47.25 98.16,47.71 99.34,48.81 100.52,49.92 101.86,50.74 103.20,51.56 104.25,52.03 105.30,52.50 106.34,53.13 107.39,53.75 108.44,54.27 109.48,54.78 111.17,55.24 112.86,55.71 113.99,56.18 115.12,56.66 116.78,57.11 118.44,57.56 119.39,58.13 120.34,58.71 121.53,59.52 122.71,60.32 124.54,61.05 126.37,61.77 126.82,62.05 127.27,62.32 127.61,62.73 127.96,63.13 128.15,63.62 128.34,64.12 128.37,64.64 128.40,65.17 128.25,65.68 128.11,66.19 127.81,66.63 127.51,67.07 127.09,67.39 126.67,67.71 126.16,67.87 125.66,68.04 125.13,68.04 124.60,68.04 124.10,67.87 123.60,67.69 123.18,67.37 122.76,67.05 122.46,66.61 122.17,66.17 122.03,65.66 121.89,65.15 121.92,64.62 121.95,64.09 122.15,63.60 122.34,63.11 122.69,62.71 123.03,62.30 123.49,62.03 123.94,61.76 124.46,61.65 124.98,61.54 125.51,61.60 126.03,61.66 126.51,61.88 126.99,62.10 127.37,62.47 127.76,62.84 128.00,63.31 128.25,63.77 128.33,64.30 128.42,64.82 128.33,65.34 128.24,65.87 127.99,66.33 127.74,66.80 127.36,67.16 126.97,67.52 126.49,67.75 126.01,67.97 125.48,68.02 124.95,68.08 124.44,67.96 123.92,67.84 123.92,67.84 123.92,67.84 121.65,66.92 119.37,65.99 117.72,64.81 116.08,63.63 114.88,63.30 113.68,62.98 112.11,62.33 110.54,61.68 109.24,61.31 107.93,60.94 106.54,60.45 105.16,59.97 104.03,59.14 102.90,58.32 101.43,57.76 99.96,57.20 98.89,56.61 97.83,56.01 96.40,54.74 94.97,53.47 93.55,53.23 92.12,52.98 90.96,52.10 89.80,51.21 88.23,50.71 86.66,50.21 85.14,49.25 83.62,48.29 82.62,47.81 81.62,47.32 80.62,46.84 79.63,46.35 78.65,45.85 77.66,45.36 76.35,44.52 75.03,43.69 73.54,43.05 72.04,42.41 70.93,41.84 69.81,41.27 68.29,40.18 66.77,39.08 65.76,38.34 64.75,37.61 63.41,37.19 62.08,36.76 60.40,36.18 58.72,35.59 57.20,34.89 55.68,34.18 54.49,33.33 53.30,32.48 52.07,32.05 50.84,31.62 49.17,31.10 47.51,30.59 46.46,30.03 45.40,29.48 44.47,28.94 43.54,28.40 42.09,27.89 40.63,27.39 39.13,26.80 37.63,26.21 36.67,25.72 35.72,25.23 34.80,24.43 33.88,23.64 32.94,23.12 32.01,22.60 30.91,22.03 29.81,21.47 28.78,20.81 27.74,20.16 26.77,19.35 25.81,18.54 24.83,18.04 23.84,17.54 22.88,17.01 21.92,16.49 20.43,15.34 18.94,14.20 18.08,13.40 17.22,12.61 15.86,11.58 14.51,10.55 13.59,9.75 12.66,8.96 11.67,8.45 10.68,7.94 9.69,7.43 8.71,6.92 7.73,6.40 6.76,5.88 5.81,5.33 4.85,4.78 3.36,3.99 1.86,3.20 0.59,2.86 -0.66,2.53 -0.96,2.41 -1.25,2.29 -1.51,2.11 -1.76,1.93 -1.97,1.69 -2.17,1.45 -2.32,1.17 -2.46,0.88 -2.53,0.58 -2.60,0.27 -2.59,-0.04 -2.59,-0.35 -2.51,-0.66 -2.43,-0.96 -2.28,-1.24 -2.13,-1.52 -1.91,-1.75 -1.70,-1.98 -1.44,-2.16 -1.17,-2.33 -0.88,-2.44 -0.58,-2.55 -0.27,-2.58 0.04,-2.61 0.35,-2.57 0.66,-2.53 0.66,-2.53 L 0.66,-2.53 Z"></path></g><g transform="translate(27.8203125 34.06640625) rotate(0 55.068359375 21.236328125)" stroke="none"><path fill="#fcc2d7" d="M 1.96,-9.69 Q 1.96,-9.69 4.63,-9.36 7.30,-9.02 12.34,-8.17 17.37,-7.33 23.04,-6.19 28.70,-5.05 33.05,-3.21 37.39,-1.36 41.69,0.24 45.99,1.85 50.13,4.12 54.26,6.39 58.09,9.26 61.91,12.14 65.62,14.37 69.33,16.60 73.27,18.23 77.21,19.86 80.86,22.66 84.52,25.46 89.15,27.08 93.79,28.69 98.23,29.93 102.66,31.17 106.54,33.86 110.41,36.55 104.12,38.14 97.83,39.73 97.07,44.46 96.30,49.18 94.00,44.90 91.69,40.61 88.63,36.00 85.56,31.39 81.86,25.96 78.16,20.54 73.15,19.10 68.15,17.65 63.00,15.93 57.86,14.21 52.02,12.03 46.18,9.86 41.79,8.80 37.39,7.74 32.84,7.76 28.29,7.78 23.03,7.80 17.77,7.81 15.27,7.40 12.77,6.99 10.53,5.80 8.29,4.62 6.55,2.78 4.81,0.94 3.75,-1.35 2.68,-3.65 2.41,-6.17 2.14,-8.68 2.68,-11.16 3.23,-13.63 4.53,-15.80 5.84,-17.97 7.77,-19.61 9.70,-21.25 12.05,-22.19 14.40,-23.12 16.93,-23.26 19.46,-23.40 21.90,-22.72 24.34,-22.04 26.44,-20.62 28.54,-19.20 30.07,-17.18 31.60,-15.17 32.41,-12.77 33.22,-10.37 33.22,-7.83 33.22,-5.30 32.41,-2.90 31.60,-0.50 30.07,1.51 28.53,3.52 26.44,4.94 24.34,6.36 21.90,7.04 19.46,7.72 16.93,7.58 14.40,7.44 12.05,6.51 9.69,5.57 7.76,3.93 5.83,2.29 4.53,0.12 3.22,-2.04 2.68,-4.52 2.14,-6.99 2.41,-9.51 2.69,-12.03 3.75,-14.33 4.81,-16.62 6.56,-18.46 8.30,-20.30 10.54,-21.49 12.77,-22.67 15.27,-23.08 17.77,-23.49 17.77,-23.49 17.77,-23.49 23.50,-23.47 29.24,-23.46 33.84,-23.44 38.44,-23.42 42.81,-23.09 47.17,-22.77 52.36,-20.41 57.56,-18.06 62.21,-16.76 66.86,-15.46 71.78,-13.27 76.71,-11.08 80.66,-9.43 84.62,-7.79 89.55,-6.14 94.47,-4.50 98.28,-1.37 102.10,1.74 104.85,5.97 107.61,10.20 110.10,13.72 112.60,17.23 115.41,21.21 118.23,25.19 120.52,29.71 122.81,34.23 123.91,41.93 125.01,49.63 123.10,54.23 121.18,58.84 113.62,62.04 106.05,65.25 101.86,64.18 97.67,63.11 93.73,60.68 89.80,58.24 85.48,56.63 81.15,55.02 76.43,53.50 71.72,51.98 68.33,49.34 64.94,46.71 60.13,43.54 55.31,40.37 50.60,37.96 45.89,35.54 41.52,31.48 37.15,27.43 32.47,24.62 27.78,21.80 24.27,19.19 20.75,16.57 16.62,15.22 12.49,13.87 7.85,12.51 3.22,11.15 0.63,10.42 -1.96,9.69 -3.09,9.32 -4.22,8.94 -5.23,8.30 -6.24,7.67 -7.07,6.81 -7.89,5.95 -8.49,4.92 -9.09,3.89 -9.42,2.74 -9.76,1.60 -9.81,0.41 -9.86,-0.77 -9.62,-1.94 -9.38,-3.11 -8.87,-4.19 -8.36,-5.27 -7.61,-6.19 -6.86,-7.12 -5.91,-7.84 -4.96,-8.55 -3.86,-9.02 -2.76,-9.49 -1.59,-9.69 -0.41,-9.88 0.77,-9.78 1.96,-9.69 1.96,-9.69 L 1.96,-9.69 Z"></path></g><g transform="translate(134.52734375 39.63671875) rotate(0 -24.65234375 -10.7109375)" stroke="none"><path fill="#fcc2d7" d="M -5.57,8.45 Q -5.57,8.45 -7.88,7.16 -10.19,5.86 -14.96,4.04 -19.73,2.22 -24.69,0.83 -29.66,-0.56 -33.98,-2.77 -38.30,-4.99 -42.48,-6.33 -46.66,-7.67 -48.07,-7.74 -49.48,-7.80 -51.65,-8.18 -53.82,-8.57 -55.75,-9.63 -57.69,-10.69 -59.18,-12.31 -60.67,-13.93 -61.57,-15.94 -62.47,-17.95 -62.68,-20.14 -62.89,-22.34 -62.39,-24.48 -61.88,-26.63 -60.72,-28.50 -59.56,-30.37 -57.86,-31.78 -56.16,-33.18 -54.10,-33.97 -52.05,-34.76 -49.85,-34.85 -47.64,-34.94 -45.53,-34.32 -43.41,-33.70 -41.61,-32.44 -39.80,-31.18 -38.49,-29.40 -37.18,-27.63 -36.51,-25.53 -35.83,-23.44 -35.86,-21.23 -35.89,-19.03 -36.62,-16.95 -37.35,-14.87 -38.71,-13.14 -40.07,-11.40 -41.91,-10.19 -43.75,-8.98 -45.88,-8.42 -48.01,-7.86 -50.21,-8.01 -52.41,-8.16 -54.44,-9.00 -56.48,-9.84 -58.14,-11.29 -59.80,-12.74 -60.91,-14.65 -62.02,-16.55 -62.46,-18.71 -62.91,-20.87 -62.64,-23.05 -62.37,-25.24 -61.42,-27.23 -60.47,-29.21 -58.93,-30.79 -57.39,-32.37 -55.43,-33.38 -53.47,-34.38 -51.29,-34.71 -49.11,-35.04 -49.11,-35.04 -49.12,-35.04 -46.23,-34.87 -43.33,-34.70 -38.26,-32.32 -33.18,-29.94 -27.84,-26.91 -22.50,-23.89 -18.15,-22.44 -13.80,-20.99 -10.00,-18.94 -6.21,-16.88 -2.42,-14.28 1.36,-11.67 3.47,-10.06 5.57,-8.45 6.50,-7.66 7.43,-6.87 8.15,-5.88 8.86,-4.89 9.32,-3.76 9.78,-2.63 9.95,-1.42 10.12,-0.21 10.00,0.99 9.88,2.21 9.47,3.36 9.06,4.51 8.39,5.53 7.72,6.55 6.82,7.38 5.93,8.21 4.86,8.80 3.79,9.39 2.61,9.70 1.43,10.02 0.21,10.05 -1.00,10.08 -2.19,9.81 -3.38,9.54 -4.48,9.00 -5.57,8.45 -5.57,8.45 L -5.57,8.45 Z"></path></g><g transform="translate(58.63671875 86.046875) rotate(0 -17.10546875 3.375)" stroke="none"><path fill="#1e1e1e" d="M 1.63,2.07 Q 1.63,2.07 0.63,2.86 -0.35,3.66 -1.47,4.38 -2.58,5.10 -3.63,5.70 -4.68,6.30 -5.73,7.24 -6.78,8.17 -8.43,8.84 -10.08,9.52 -11.29,9.65 -12.50,9.78 -14.03,9.85 -15.56,9.92 -17.05,9.97 -18.54,10.02 -20.04,10.06 -21.53,10.10 -23.90,9.72 -26.26,9.34 -27.21,8.77 -28.15,8.20 -29.73,7.79 -31.30,7.38 -32.33,6.88 -33.36,6.37 -35.04,4.69 -36.71,3.00 -37.01,2.55 -37.30,2.09 -37.43,1.56 -37.56,1.03 -37.52,0.49 -37.47,-0.05 -37.25,-0.55 -37.04,-1.05 -36.67,-1.45 -36.31,-1.85 -35.84,-2.12 -35.36,-2.39 -34.83,-2.49 -34.29,-2.59 -33.75,-2.52 -33.21,-2.44 -32.73,-2.20 -32.24,-1.96 -31.85,-1.57 -31.47,-1.19 -31.23,-0.70 -30.99,-0.21 -30.92,0.32 -30.84,0.86 -30.95,1.39 -31.05,1.93 -31.32,2.40 -31.59,2.87 -31.99,3.24 -32.40,3.60 -32.90,3.81 -33.40,4.03 -33.94,4.07 -34.48,4.11 -35.01,3.98 -35.54,3.85 -36.00,3.56 -36.46,3.26 -36.80,2.84 -37.14,2.41 -37.32,1.90 -37.51,1.39 -37.53,0.85 -37.54,0.30 -37.38,-0.21 -37.22,-0.73 -36.90,-1.17 -36.58,-1.61 -36.14,-1.93 -35.70,-2.25 -35.18,-2.41 -34.65,-2.56 -34.11,-2.55 -33.57,-2.53 -33.06,-2.34 -32.55,-2.16 -32.12,-1.81 -31.70,-1.47 -31.70,-1.47 -31.70,-1.47 -30.23,-0.20 -28.77,1.07 -27.58,1.42 -26.39,1.77 -25.15,2.39 -23.90,3.01 -22.72,3.20 -21.53,3.39 -20.04,3.43 -18.54,3.47 -17.06,3.51 -15.57,3.56 -14.14,3.61 -12.70,3.66 -11.56,3.74 -10.42,3.82 -8.87,2.68 -7.31,1.55 -5.48,0.52 -3.64,-0.50 -2.64,-1.28 -1.63,-2.07 -1.36,-2.23 -1.09,-2.40 -0.79,-2.50 -0.48,-2.59 -0.16,-2.61 0.14,-2.63 0.46,-2.58 0.77,-2.52 1.06,-2.39 1.35,-2.26 1.60,-2.07 1.86,-1.87 2.05,-1.62 2.25,-1.37 2.38,-1.08 2.51,-0.79 2.57,-0.48 2.63,-0.17 2.61,0.14 2.60,0.46 2.50,0.76 2.41,1.07 2.24,1.34 2.08,1.62 1.86,1.84 1.63,2.07 1.63,2.07 L 1.63,2.07 Z"></path></g><g transform="translate(21.58984375 83.55859375) rotate(0 19.15625 -2.392578125)" stroke="none"><path fill="#1e1e1e" d="M -1.88,-1.88 Q -1.88,-1.88 -1.09,-2.70 -0.30,-3.51 0.78,-4.31 1.88,-5.11 3.34,-6.09 4.81,-7.08 6.58,-7.38 8.36,-7.68 9.59,-7.76 10.83,-7.84 12.57,-7.86 14.32,-7.89 15.87,-7.91 17.41,-7.94 18.63,-7.97 19.85,-8.00 21.37,-8.04 22.89,-8.09 24.34,-8.12 25.79,-8.16 27.49,-8.14 29.18,-8.13 30.71,-8.13 32.25,-8.13 33.47,-8.15 34.69,-8.16 37.06,-7.63 39.43,-7.09 39.91,-6.83 40.39,-6.57 40.77,-6.17 41.14,-5.76 41.37,-5.26 41.59,-4.76 41.65,-4.21 41.70,-3.67 41.58,-3.13 41.45,-2.59 41.16,-2.13 40.87,-1.66 40.45,-1.31 40.03,-0.96 39.52,-0.76 39.00,-0.56 38.45,-0.54 37.90,-0.51 37.38,-0.66 36.85,-0.82 36.40,-1.13 35.94,-1.44 35.62,-1.88 35.29,-2.33 35.12,-2.85 34.95,-3.37 34.95,-3.92 34.96,-4.47 35.14,-4.99 35.32,-5.51 35.66,-5.94 36.00,-6.38 36.46,-6.68 36.91,-6.99 37.44,-7.13 37.98,-7.27 38.52,-7.23 39.07,-7.20 39.58,-6.99 40.09,-6.78 40.51,-6.42 40.92,-6.06 41.20,-5.58 41.48,-5.11 41.59,-4.57 41.70,-4.03 41.64,-3.49 41.57,-2.94 41.34,-2.44 41.10,-1.95 40.72,-1.55 40.33,-1.16 39.85,-0.91 39.36,-0.65 38.81,-0.57 38.27,-0.49 37.73,-0.58 37.19,-0.68 37.19,-0.68 37.19,-0.68 35.94,-1.04 34.69,-1.40 33.47,-1.41 32.25,-1.43 30.71,-1.43 29.18,-1.43 27.49,-1.42 25.79,-1.40 24.34,-1.44 22.89,-1.47 21.37,-1.52 19.85,-1.56 18.63,-1.59 17.41,-1.62 15.87,-1.65 14.33,-1.67 12.62,-1.69 10.91,-1.70 9.79,-1.73 8.67,-1.75 7.60,-1.76 6.53,-1.78 5.01,-0.73 3.50,0.31 2.69,1.09 1.88,1.88 1.63,2.08 1.37,2.28 1.08,2.41 0.79,2.54 0.47,2.60 0.16,2.66 -0.15,2.64 -0.48,2.62 -0.78,2.52 -1.09,2.43 -1.36,2.26 -1.64,2.09 -1.87,1.87 -2.09,1.64 -2.26,1.36 -2.43,1.09 -2.52,0.78 -2.62,0.48 -2.64,0.15 -2.66,-0.16 -2.60,-0.47 -2.54,-0.79 -2.41,-1.08 -2.28,-1.37 -2.08,-1.63 -1.88,-1.88 -1.88,-1.88 L -1.88,-1.88 Z"></path></g><g transform="translate(95.24609375 81.328125) rotate(0 -0.669921875 0.412109375)" stroke="none"><path fill="#1e1e1e" d="M 2.12,-0.66 Q 2.12,-0.66 2.15,-0.13 2.18,0.40 1.96,0.88 1.74,1.36 1.32,1.69 0.91,2.02 0.38,2.12 -0.13,2.21 -0.64,2.05 -1.14,1.90 -1.52,1.52 -1.90,1.14 -2.05,0.64 -2.21,0.13 -2.12,-0.38 -2.02,-0.91 -1.69,-1.32 -1.36,-1.74 -0.88,-1.96 -0.39,-2.18 0.13,-2.15 0.66,-2.11 1.11,-1.84 1.57,-1.56 1.84,-1.11 L 2.12,-0.66 Z"></path></g><g transform="translate(95.203125 82.10546875) rotate(0 -6.357421875 -0.26953125)" stroke="none"><path fill="#1e1e1e" d="M -0.35,2.63 Q -0.35,2.63 -1.51,2.49 -2.67,2.35 -3.86,2.34 -5.05,2.32 -6.42,2.39 -7.79,2.46 -10.25,2.50 -12.71,2.54 -13.20,2.46 -13.70,2.38 -14.14,2.15 -14.58,1.91 -14.92,1.55 -15.27,1.19 -15.48,0.73 -15.69,0.28 -15.74,-0.21 -15.79,-0.70 -15.69,-1.19 -15.58,-1.68 -15.32,-2.11 -15.06,-2.53 -14.68,-2.86 -14.30,-3.18 -13.84,-3.36 -13.37,-3.55 -12.87,-3.58 -12.38,-3.60 -11.89,-3.47 -11.41,-3.34 -11.00,-3.06 -10.59,-2.78 -10.28,-2.38 -9.98,-1.98 -9.82,-1.51 -9.66,-1.03 -9.66,-0.53 -9.66,-0.03 -9.82,0.43 -9.98,0.90 -10.28,1.30 -10.59,1.70 -11.00,1.98 -11.41,2.26 -11.90,2.39 -12.38,2.53 -12.88,2.50 -13.37,2.47 -13.84,2.29 -14.30,2.10 -14.68,1.78 -15.06,1.45 -15.32,1.03 -15.58,0.60 -15.69,0.11 -15.79,-0.37 -15.74,-0.86 -15.68,-1.36 -15.47,-1.81 -15.26,-2.27 -14.92,-2.63 -14.58,-2.99 -14.14,-3.23 -13.69,-3.46 -13.20,-3.54 -12.71,-3.62 -12.71,-3.62 -12.71,-3.62 -10.23,-3.58 -7.76,-3.53 -6.25,-3.43 -4.75,-3.32 -3.35,-3.14 -1.95,-2.97 -0.80,-2.80 0.35,-2.63 0.66,-2.55 0.97,-2.47 1.25,-2.31 1.53,-2.16 1.77,-1.95 2.00,-1.73 2.18,-1.47 2.36,-1.20 2.47,-0.90 2.58,-0.60 2.62,-0.28 2.65,0.03 2.61,0.34 2.57,0.66 2.45,0.96 2.33,1.26 2.15,1.52 1.96,1.78 1.72,1.99 1.48,2.20 1.19,2.34 0.91,2.49 0.59,2.56 0.28,2.63 -0.03,2.63 -0.35,2.63 -0.35,2.63 L -0.35,2.63 Z"></path></g><g transform="translate(81.609375 82.75) rotate(0 16.3203125 5.697265625)" stroke="none"><path fill="#1e1e1e" d="M 2.35,-1.22 Q 2.35,-1.22 2.92,-0.16 3.49,0.90 3.98,2.04 4.46,3.18 5.83,3.93 7.20,4.68 8.32,5.64 9.44,6.61 11.10,6.85 12.76,7.09 14.21,7.50 15.66,7.92 16.94,8.00 18.22,8.09 19.55,8.06 20.89,8.04 22.03,8.02 23.17,8.01 24.27,7.99 25.38,7.98 26.90,7.95 28.42,7.93 30.53,7.92 32.64,7.90 33.19,7.99 33.75,8.09 34.25,8.35 34.75,8.61 35.13,9.02 35.52,9.43 35.76,9.94 36.00,10.46 36.06,11.02 36.12,11.58 36.00,12.13 35.87,12.68 35.58,13.16 35.29,13.65 34.86,14.01 34.43,14.38 33.91,14.59 33.38,14.79 32.82,14.83 32.26,14.86 31.71,14.70 31.17,14.55 30.70,14.24 30.24,13.92 29.90,13.47 29.55,13.02 29.37,12.49 29.19,11.95 29.19,11.39 29.19,10.82 29.38,10.29 29.56,9.76 29.90,9.31 30.24,8.86 30.71,8.54 31.17,8.22 31.72,8.07 32.26,7.92 32.82,7.95 33.39,7.98 33.91,8.19 34.43,8.40 34.86,8.77 35.29,9.13 35.58,9.62 35.88,10.10 36.00,10.65 36.12,11.20 36.06,11.76 36.00,12.32 35.76,12.84 35.52,13.35 35.13,13.76 34.74,14.17 34.25,14.43 33.75,14.69 33.19,14.79 32.63,14.88 32.64,14.88 32.64,14.88 30.53,14.86 28.42,14.85 26.90,14.82 25.38,14.80 24.27,14.78 23.16,14.77 22.01,14.75 20.86,14.73 19.39,14.68 17.91,14.62 16.60,14.48 15.28,14.34 13.71,13.87 12.14,13.41 10.35,12.91 8.56,12.41 6.95,11.71 5.35,11.01 4.49,10.14 3.63,9.26 2.47,8.40 1.31,7.55 0.42,6.46 -0.46,5.37 -0.86,4.37 -1.25,3.38 -1.80,2.30 -2.35,1.22 -2.46,0.93 -2.58,0.63 -2.61,0.31 -2.65,-0.00 -2.61,-0.32 -2.57,-0.64 -2.46,-0.94 -2.35,-1.24 -2.16,-1.50 -1.98,-1.76 -1.74,-1.97 -1.50,-2.19 -1.22,-2.33 -0.93,-2.48 -0.62,-2.56 -0.31,-2.63 0.00,-2.63 0.32,-2.63 0.63,-2.56 0.94,-2.48 1.23,-2.33 1.51,-2.18 1.75,-1.97 1.99,-1.75 2.17,-1.49 2.35,-1.22 2.35,-1.22 L 2.35,-1.22 Z"></path></g><g transform="translate(70.98828125 106.01953125) rotate(0 -4.20703125 13.10546875)" stroke="none"><path fill="#1e1e1e" d="M 2.51,0.82 Q 2.51,0.82 2.04,2.19 1.57,3.57 1.05,5.47 0.53,7.37 -0.00,8.85 -0.55,10.34 -0.97,11.34 -1.39,12.34 -1.76,14.42 -2.13,16.50 -2.18,17.68 -2.23,18.86 -2.72,20.60 -3.20,22.34 -3.55,23.39 -3.90,24.45 -4.65,26.04 -5.40,27.64 -5.71,28.08 -6.01,28.52 -6.45,28.85 -6.88,29.17 -7.39,29.33 -7.91,29.50 -8.44,29.50 -8.98,29.49 -9.49,29.31 -10.00,29.13 -10.43,28.80 -10.85,28.47 -11.15,28.02 -11.45,27.57 -11.59,27.05 -11.73,26.53 -11.69,25.99 -11.66,25.45 -11.45,24.96 -11.25,24.46 -10.89,24.05 -10.54,23.64 -10.07,23.37 -9.61,23.10 -9.08,22.99 -8.55,22.88 -8.02,22.94 -7.48,23.00 -7.00,23.24 -6.51,23.47 -6.12,23.84 -5.73,24.22 -5.49,24.70 -5.24,25.18 -5.16,25.71 -5.08,26.24 -5.17,26.77 -5.26,27.30 -5.52,27.78 -5.78,28.25 -6.17,28.62 -6.57,28.99 -7.06,29.21 -7.55,29.43 -8.09,29.48 -8.63,29.53 -9.15,29.41 -9.68,29.29 -10.14,29.01 -10.59,28.72 -10.94,28.31 -11.28,27.89 -11.48,27.39 -11.67,26.89 -11.70,26.35 -11.72,25.81 -11.57,25.29 -11.42,24.77 -11.42,24.77 -11.42,24.77 -10.47,22.80 -9.53,20.83 -9.12,19.71 -8.71,18.58 -8.57,17.28 -8.44,15.99 -7.99,14.31 -7.53,12.64 -7.29,11.25 -7.04,9.86 -6.25,8.60 -5.46,7.34 -5.01,6.36 -4.57,5.38 -3.97,3.67 -3.38,1.95 -2.95,0.56 -2.51,-0.82 -2.38,-1.11 -2.24,-1.40 -2.04,-1.64 -1.84,-1.89 -1.59,-2.09 -1.33,-2.28 -1.04,-2.41 -0.75,-2.53 -0.43,-2.59 -0.12,-2.64 0.19,-2.62 0.51,-2.59 0.81,-2.49 1.12,-2.39 1.39,-2.23 1.66,-2.06 1.88,-1.83 2.10,-1.60 2.26,-1.32 2.42,-1.05 2.52,-0.74 2.61,-0.44 2.62,-0.12 2.64,0.19 2.57,0.50 2.51,0.82 2.51,0.82 L 2.51,0.82 Z"></path></g><g transform="translate(68.55859375 134.27734375) rotate(0 0.00004999999998744897 0.00004999999998744897)" stroke="none"><path fill="#1e1e1e" d="M 1.57,-1.57 Q 1.57,-1.57 1.77,-1.27 1.98,-0.98 2.09,-0.64 2.20,-0.29 2.19,0.05 2.18,0.41 2.05,0.75 1.93,1.09 1.70,1.37 1.48,1.65 1.18,1.84 0.87,2.04 0.52,2.12 0.18,2.21 -0.17,2.18 -0.53,2.15 -0.86,2.01 -1.19,1.87 -1.46,1.63 -1.73,1.39 -1.90,1.07 -2.08,0.76 -2.15,0.41 -2.21,0.05 -2.17,-0.29 -2.12,-0.65 -1.96,-0.97 -1.80,-1.29 -1.54,-1.54 -1.29,-1.80 -0.97,-1.96 -0.65,-2.12 -0.29,-2.17 0.06,-2.21 0.41,-2.15 0.76,-2.08 1.07,-1.90 1.39,-1.73 1.63,-1.46 1.87,-1.19 2.01,-0.86 2.15,-0.53 2.18,-0.17 2.21,0.18 2.12,0.52 2.03,0.87 1.84,1.18 1.65,1.48 1.37,1.70 1.09,1.93 0.75,2.05 0.41,2.18 0.05,2.19 -0.30,2.20 -0.64,2.09 -0.98,1.98 -1.27,1.77 -1.57,1.56 -1.57,1.57 -1.57,1.57 -1.73,1.35 -1.90,1.14 -2.01,0.90 -2.12,0.66 -2.16,0.39 -2.21,0.13 -2.20,-0.13 -2.18,-0.40 -2.10,-0.65 -2.02,-0.91 -1.88,-1.14 -1.74,-1.36 -1.55,-1.55 -1.36,-1.74 -1.14,-1.88 -0.91,-2.02 -0.65,-2.10 -0.40,-2.18 -0.13,-2.20 0.13,-2.21 0.39,-2.16 0.66,-2.12 0.90,-2.01 1.14,-1.90 1.35,-1.73 1.57,-1.57 1.57,-1.57 L 1.57,-1.57 Z"></path></g><g transform="translate(64.8671875 131.33984375) rotate(0 2.365234375 2.25)" stroke="none"><path fill="#1e1e1e" d="M 1.77,-1.38 Q 1.77,-1.38 2.53,-0.48 3.28,0.41 4.68,1.10 6.07,1.78 6.29,2.00 6.51,2.21 6.67,2.48 6.83,2.74 6.93,3.03 7.02,3.32 7.04,3.63 7.06,3.93 7.01,4.24 6.96,4.54 6.84,4.82 6.71,5.10 6.52,5.34 6.34,5.59 6.10,5.78 5.86,5.97 5.58,6.10 5.30,6.23 5.00,6.28 4.70,6.34 4.39,6.33 4.08,6.31 3.79,6.22 3.50,6.13 3.23,5.98 2.97,5.82 0.79,3.73 -1.39,1.65 -1.61,1.38 -1.84,1.12 -1.97,0.79 -2.10,0.47 -2.12,0.12 -2.15,-0.22 -2.05,-0.56 -1.96,-0.89 -1.77,-1.18 -1.57,-1.47 -1.29,-1.69 -1.02,-1.90 -0.69,-2.01 -0.36,-2.13 -0.01,-2.13 0.33,-2.13 0.67,-2.02 1.00,-1.91 1.28,-1.70 1.56,-1.49 1.75,-1.20 1.95,-0.91 2.05,-0.58 2.14,-0.24 2.13,0.10 2.11,0.45 1.98,0.78 1.85,1.10 1.63,1.37 1.40,1.64 1.10,1.82 0.80,2.00 0.46,2.08 0.12,2.15 -0.22,2.12 -0.56,2.08 -0.88,1.94 -1.20,1.79 -1.45,1.55 -1.71,1.31 -1.88,1.00 -2.04,0.69 -2.10,0.35 -2.16,0.01 -2.10,-0.33 -2.05,-0.68 -1.88,-0.99 -1.72,-1.30 -1.47,-1.54 -1.22,-1.78 -0.90,-1.93 -0.58,-2.08 -0.24,-2.11 0.10,-2.15 0.44,-2.08 0.79,-2.01 1.09,-1.83 1.39,-1.65 1.39,-1.65 1.39,-1.65 3.73,0.06 6.07,1.78 6.29,2.00 6.51,2.21 6.67,2.48 6.83,2.74 6.93,3.03 7.02,3.32 7.04,3.63 7.06,3.93 7.01,4.24 6.96,4.54 6.84,4.82 6.71,5.10 6.52,5.34 6.34,5.59 6.10,5.78 5.86,5.97 5.58,6.10 5.30,6.23 5.00,6.28 4.70,6.34 4.39,6.33 4.09,6.31 3.79,6.22 3.50,6.13 3.23,5.98 2.97,5.82 2.11,5.32 1.26,4.82 0.43,4.07 -0.38,3.31 -1.07,2.35 -1.77,1.38 -1.91,1.14 -2.05,0.91 -2.13,0.65 -2.21,0.39 -2.22,0.12 -2.24,-0.14 -2.19,-0.40 -2.14,-0.67 -2.03,-0.92 -1.92,-1.16 -1.75,-1.38 -1.58,-1.59 -1.37,-1.76 -1.15,-1.92 -0.90,-2.03 -0.66,-2.14 -0.39,-2.19 -0.12,-2.24 0.14,-2.22 0.41,-2.21 0.67,-2.12 0.92,-2.04 1.16,-1.90 1.39,-1.76 1.58,-1.57 1.77,-1.38 1.77,-1.38 L 1.77,-1.38 Z"></path></g><g transform="translate(34.82421875 144.97265625) rotate(0 40.931640625 6.294921875)" stroke="none"><path fill="#1e1e1e" d="M 2.21,-1.21 Q 2.21,-1.21 2.97,0.30 3.74,1.81 5.18,3.09 6.61,4.38 7.73,4.78 8.85,5.18 10.13,5.60 11.42,6.02 12.57,6.57 13.73,7.12 14.69,7.59 15.66,8.05 16.64,8.53 17.63,9.01 19.65,9.51 21.68,10.00 23.20,10.06 24.71,10.11 26.23,10.48 27.74,10.84 29.00,11.32 30.25,11.80 32.09,12.30 33.93,12.81 35.30,13.30 36.67,13.79 39.34,14.41 42.02,15.02 43.82,15.17 45.61,15.33 47.54,15.33 49.46,15.33 51.45,15.31 53.43,15.30 55.43,15.28 57.43,15.26 59.02,15.22 60.61,15.19 62.12,15.16 63.64,15.12 65.10,14.90 66.57,14.68 68.28,13.60 70.00,12.52 71.56,11.78 73.13,11.04 74.03,10.28 74.94,9.52 75.67,8.59 76.40,7.66 76.87,6.42 77.34,5.18 77.83,3.25 78.33,1.31 78.40,0.14 78.47,-1.03 78.47,-3.34 78.46,-5.64 78.55,-6.19 78.64,-6.73 78.90,-7.21 79.16,-7.70 79.56,-8.08 79.96,-8.45 80.46,-8.68 80.96,-8.91 81.50,-8.97 82.05,-9.03 82.58,-8.91 83.12,-8.79 83.59,-8.51 84.06,-8.22 84.42,-7.80 84.77,-7.38 84.97,-6.87 85.18,-6.36 85.20,-5.82 85.23,-5.27 85.08,-4.74 84.94,-4.21 84.63,-3.75 84.32,-3.30 83.88,-2.97 83.44,-2.64 82.92,-2.46 82.40,-2.29 81.85,-2.29 81.30,-2.29 80.78,-2.47 80.26,-2.64 79.83,-2.98 79.39,-3.31 79.08,-3.76 78.77,-4.22 78.63,-4.75 78.48,-5.28 78.51,-5.83 78.54,-6.38 78.75,-6.89 78.95,-7.40 79.31,-7.81 79.67,-8.23 80.14,-8.51 80.61,-8.80 81.14,-8.91 81.68,-9.03 82.23,-8.97 82.77,-8.91 83.27,-8.68 83.77,-8.45 84.17,-8.07 84.56,-7.69 84.82,-7.20 85.08,-6.72 85.17,-6.18 85.25,-5.63 85.25,-5.63 85.25,-5.63 85.21,-3.17 85.17,-0.71 85.03,0.61 84.89,1.94 84.46,3.25 84.02,4.55 83.64,6.19 83.26,7.84 82.54,9.50 81.82,11.15 81.06,12.24 80.30,13.33 79.01,14.44 77.71,15.56 75.87,16.62 74.03,17.69 72.24,18.61 70.45,19.54 69.41,20.08 68.36,20.63 66.00,20.98 63.64,21.33 62.12,21.30 60.61,21.27 59.02,21.24 57.43,21.20 55.42,21.18 53.42,21.16 51.41,21.12 49.39,21.09 47.31,21.01 45.24,20.93 44.12,20.83 42.99,20.73 41.91,20.53 40.83,20.33 39.23,20.06 37.63,19.79 36.26,19.56 34.89,19.32 33.53,18.93 32.18,18.54 30.15,17.97 28.13,17.40 26.31,16.82 24.49,16.24 22.87,16.08 21.24,15.92 19.87,15.43 18.51,14.93 16.83,14.43 15.16,13.94 14.17,13.42 13.18,12.91 11.52,11.97 9.85,11.03 7.33,10.09 4.81,9.14 3.28,7.86 1.75,6.58 0.64,5.38 -0.46,4.18 -1.33,2.69 -2.21,1.21 -2.32,0.92 -2.43,0.64 -2.47,0.34 -2.51,0.04 -2.48,-0.25 -2.45,-0.55 -2.35,-0.84 -2.25,-1.13 -2.08,-1.38 -1.91,-1.63 -1.69,-1.84 -1.46,-2.04 -1.20,-2.19 -0.93,-2.34 -0.64,-2.41 -0.34,-2.49 -0.04,-2.50 0.25,-2.50 0.55,-2.43 0.85,-2.37 1.12,-2.23 1.39,-2.09 1.62,-1.90 1.85,-1.70 2.03,-1.45 2.21,-1.21 2.21,-1.21 L 2.21,-1.21 Z"></path></g><g transform="translate(41.03515625 83.1875) rotate(0 0.00004999999998744897 0.00004999999998744897)" stroke="none"><path fill="#1e1e1e" d="M 3.14,-3.14 Q 3.14,-3.14 3.55,-2.55 3.97,-1.97 4.18,-1.28 4.40,-0.59 4.38,0.11 4.36,0.83 4.11,1.51 3.86,2.18 3.41,2.74 2.96,3.30 2.36,3.69 1.75,4.08 1.05,4.25 0.36,4.42 -0.35,4.36 -1.07,4.31 -1.73,4.02 -2.39,3.74 -2.92,3.26 -3.46,2.78 -3.81,2.15 -4.16,1.53 -4.30,0.82 -4.43,0.11 -4.34,-0.59 -4.24,-1.30 -3.92,-1.94 -3.60,-2.59 -3.09,-3.09 -2.59,-3.60 -1.94,-3.92 -1.30,-4.24 -0.59,-4.34 0.12,-4.43 0.82,-4.30 1.53,-4.16 2.15,-3.81 2.78,-3.46 3.26,-2.92 3.74,-2.39 4.02,-1.73 4.31,-1.07 4.36,-0.35 4.42,0.36 4.25,1.05 4.07,1.75 3.69,2.36 3.30,2.96 2.74,3.41 2.18,3.86 1.51,4.11 0.83,4.36 0.11,4.38 -0.60,4.40 -1.28,4.18 -1.97,3.97 -2.55,3.55 -3.14,3.13 -3.14,3.14 -3.14,3.14 -3.47,2.71 -3.80,2.29 -4.02,1.80 -4.24,1.32 -4.33,0.79 -4.43,0.26 -4.40,-0.26 -4.36,-0.80 -4.20,-1.31 -4.04,-1.82 -3.77,-2.28 -3.49,-2.73 -3.11,-3.11 -2.73,-3.49 -2.28,-3.77 -1.82,-4.05 -1.31,-4.20 -0.80,-4.36 -0.26,-4.40 0.26,-4.43 0.79,-4.33 1.32,-4.24 1.80,-4.02 2.29,-3.80 2.71,-3.47 3.14,-3.14 3.14,-3.14 L 3.14,-3.14 Z"></path></g><g transform="translate(30.484375 28.88671875) rotate(0 0.00004999999998744897 0.00005000000000165983)" stroke="none"><path fill="#fcc2d7" d="M 3.14,-3.14 Q 3.14,-3.14 3.55,-2.55 3.97,-1.97 4.18,-1.28 4.40,-0.59 4.38,0.11 4.36,0.83 4.11,1.51 3.86,2.18 3.41,2.74 2.96,3.30 2.36,3.69 1.75,4.08 1.05,4.25 0.36,4.42 -0.35,4.36 -1.07,4.31 -1.73,4.02 -2.39,3.74 -2.92,3.26 -3.46,2.78 -3.81,2.15 -4.16,1.53 -4.30,0.82 -4.43,0.11 -4.34,-0.59 -4.24,-1.30 -3.92,-1.94 -3.60,-2.59 -3.09,-3.09 -2.59,-3.60 -1.94,-3.92 -1.30,-4.24 -0.59,-4.34 0.12,-4.43 0.82,-4.30 1.53,-4.16 2.15,-3.81 2.78,-3.46 3.26,-2.92 3.74,-2.39 4.02,-1.73 4.31,-1.07 4.36,-0.35 4.42,0.36 4.25,1.05 4.07,1.75 3.69,2.36 3.30,2.96 2.74,3.41 2.18,3.86 1.51,4.11 0.83,4.36 0.11,4.38 -0.60,4.40 -1.28,4.18 -1.97,3.97 -2.55,3.55 -3.14,3.13 -3.14,3.14 -3.14,3.14 -3.47,2.71 -3.80,2.29 -4.02,1.80 -4.24,1.32 -4.33,0.79 -4.43,0.26 -4.40,-0.26 -4.36,-0.80 -4.20,-1.31 -4.04,-1.82 -3.77,-2.28 -3.49,-2.73 -3.11,-3.11 -2.73,-3.49 -2.28,-3.77 -1.82,-4.05 -1.31,-4.20 -0.80,-4.36 -0.26,-4.40 0.26,-4.43 0.79,-4.33 1.32,-4.24 1.80,-4.02 2.29,-3.80 2.71,-3.47 3.14,-3.14 3.14,-3.14 L 3.14,-3.14 Z"></path></g><g transform="translate(18.7109375 31.87109375) rotate(0 9.890625 -5.8359375)" stroke="none"><path fill="#fcc2d7" d="M 0,-5.23 Q 0,-5.23 1.60,-5.32 3.20,-5.40 6.05,-7.65 8.91,-9.90 10.85,-12.27 12.79,-14.64 14.99,-16.12 17.18,-17.60 18.19,-17.86 19.21,-18.12 20.25,-18.04 21.30,-17.96 22.26,-17.55 23.23,-17.15 24.01,-16.45 24.80,-15.76 25.32,-14.85 25.84,-13.94 26.04,-12.91 26.25,-11.88 26.11,-10.85 25.98,-9.81 25.52,-8.87 25.06,-7.92 24.32,-7.18 23.59,-6.43 22.65,-5.96 21.72,-5.49 20.68,-5.34 19.64,-5.19 18.61,-5.38 17.58,-5.57 16.67,-6.08 15.75,-6.59 15.05,-7.37 14.34,-8.14 13.92,-9.10 13.50,-10.06 13.41,-11.11 13.32,-12.15 13.57,-13.17 13.81,-14.19 14.37,-15.07 14.93,-15.96 15.74,-16.62 16.55,-17.28 17.53,-17.65 18.52,-18.02 19.56,-18.05 20.61,-18.09 21.61,-17.79 22.62,-17.49 23.47,-16.88 24.33,-16.27 24.94,-15.43 25.56,-14.58 25.87,-13.58 26.19,-12.58 26.16,-11.53 26.14,-10.49 25.79,-9.50 25.43,-8.52 24.78,-7.70 24.13,-6.87 23.25,-6.30 22.37,-5.74 22.37,-5.74 22.37,-5.74 20.63,-4.12 18.90,-2.51 16.58,-0.82 14.26,0.87 11.50,2.86 8.73,4.86 5.97,5.13 3.20,5.40 1.60,5.32 0,5.23 -0.62,5.16 -1.25,5.08 -1.84,4.86 -2.43,4.63 -2.95,4.28 -3.47,3.92 -3.89,3.44 -4.31,2.97 -4.60,2.41 -4.89,1.85 -5.04,1.24 -5.20,0.63 -5.20,-0.00 -5.20,-0.63 -5.04,-1.24 -4.89,-1.85 -4.60,-2.41 -4.31,-2.97 -3.89,-3.44 -3.47,-3.92 -2.95,-4.28 -2.43,-4.63 -1.84,-4.86 -1.25,-5.08 -0.62,-5.16 0.00,-5.23 0.00,-5.23 L 0,-5.23 Z"></path></g><g transform="translate(18.82421875 28.55859375) rotate(0 63.251953125 15.494140625)" stroke="none"><path fill="#fcc2d7" d="M -3.69,-3.65 Q -3.69,-3.65 -2.45,-5.00 -1.22,-6.35 0.68,-7.98 2.60,-9.62 5.18,-11.74 7.75,-13.86 10.08,-15.07 12.41,-16.28 14.94,-17.40 17.47,-18.52 19.89,-19.06 22.30,-19.59 24.56,-19.82 26.81,-20.05 29.45,-21.57 32.08,-23.08 34.59,-23.87 37.10,-24.66 39.43,-24.77 41.75,-24.88 44.31,-24.93 46.87,-24.97 49.02,-25.00 51.17,-25.03 53.43,-25.06 55.69,-25.09 58.21,-25.12 60.74,-25.14 62.92,-25.16 65.11,-25.18 67.51,-25.19 69.90,-25.21 73.74,-24.45 77.57,-23.68 80.13,-23.13 82.68,-22.58 84.83,-22.48 86.99,-22.37 90.25,-21.09 93.51,-19.80 96.14,-19.35 98.78,-18.91 101.23,-17.43 103.68,-15.95 105.34,-13.66 107.00,-11.37 108.68,-9.29 110.36,-7.21 112.29,-5.72 114.22,-4.23 115.87,-2.62 117.53,-1.00 119.05,0.51 120.58,2.04 122.11,4.45 123.65,6.87 125.75,9.01 127.86,11.15 128.47,13.52 129.08,15.89 130.03,18.46 130.97,21.02 131.08,23.57 131.20,26.12 131.20,28.57 131.21,31.02 131.97,33.87 132.74,36.73 133.25,39.21 133.76,41.70 133.94,45.15 134.11,48.59 133.92,49.81 133.73,51.03 133.16,52.12 132.59,53.21 131.71,54.07 130.82,54.92 129.71,55.44 128.59,55.97 127.37,56.11 126.15,56.26 124.94,56.00 123.74,55.75 122.68,55.12 121.62,54.49 120.81,53.56 120.01,52.63 119.55,51.49 119.08,50.35 119.00,49.12 118.93,47.89 119.25,46.70 119.57,45.51 120.25,44.49 120.93,43.47 121.91,42.71 122.88,41.96 124.05,41.56 125.21,41.16 126.44,41.15 127.67,41.14 128.84,41.52 130.01,41.90 131.00,42.64 131.98,43.38 132.68,44.39 133.38,45.41 133.72,46.59 134.06,47.77 134.00,49.00 133.94,50.23 133.50,51.38 133.05,52.53 132.26,53.47 131.47,54.42 130.42,55.06 129.37,55.70 128.17,55.98 126.97,56.25 125.75,56.13 124.52,56.00 123.40,55.49 122.28,54.99 121.38,54.15 120.48,53.31 119.89,52.22 119.31,51.14 119.10,49.93 118.89,48.71 118.89,48.72 118.89,48.72 118.91,46.68 118.94,44.64 117.99,40.84 117.05,37.05 116.52,34.04 116.00,31.02 116.00,28.61 116.01,26.19 115.57,23.97 115.13,21.75 114.38,19.67 113.64,17.59 111.73,15.14 109.82,12.69 107.85,10.73 105.88,8.77 104.32,7.29 102.76,5.80 101.01,4.51 99.26,3.22 97.65,1.61 96.05,-0.00 95.08,-2.00 94.12,-4.00 92.02,-4.72 89.92,-5.45 87.67,-6.31 85.43,-7.18 83.30,-7.73 81.17,-8.28 78.95,-8.70 76.73,-9.12 74.30,-9.61 71.87,-10.11 69.37,-10.13 66.87,-10.14 64.47,-10.16 62.08,-10.18 59.43,-10.21 56.79,-10.23 54.43,-10.26 52.07,-10.29 49.95,-10.32 47.82,-10.34 45.29,-10.39 42.76,-10.43 40.41,-10.57 38.05,-10.71 35.67,-9.34 33.29,-7.97 30.30,-7.19 27.30,-6.41 24.88,-6.05 22.45,-5.70 20.22,-5.31 17.98,-4.93 15.89,-4.19 13.81,-3.46 11.94,-2.21 10.07,-0.97 8.19,0.12 6.31,1.22 5.00,2.43 3.69,3.65 3.19,4.04 2.70,4.43 2.13,4.69 1.56,4.95 0.95,5.06 0.33,5.18 -0.28,5.14 -0.91,5.11 -1.51,4.93 -2.11,4.74 -2.64,4.42 -3.18,4.10 -3.63,3.66 -4.07,3.22 -4.40,2.68 -4.72,2.15 -4.91,1.55 -5.10,0.95 -5.14,0.33 -5.18,-0.29 -5.07,-0.90 -4.96,-1.52 -4.71,-2.09 -4.45,-2.66 -4.07,-3.16 -3.68,-3.65 -3.68,-3.65 L -3.69,-3.65 Z"></path></g><g transform="translate(141.62890625 99.3671875) rotate(0 0.00004999999998744897 0.00004999999998744897)" stroke="none"><path fill="#fcc2d7" d="M 3.14,-3.14 Q 3.14,-3.14 3.55,-2.55 3.97,-1.97 4.18,-1.28 4.40,-0.59 4.38,0.11 4.36,0.83 4.11,1.51 3.86,2.18 3.41,2.74 2.96,3.30 2.36,3.69 1.75,4.08 1.05,4.25 0.36,4.42 -0.35,4.36 -1.07,4.31 -1.73,4.02 -2.39,3.74 -2.92,3.26 -3.46,2.78 -3.81,2.15 -4.16,1.53 -4.30,0.82 -4.43,0.11 -4.34,-0.59 -4.24,-1.30 -3.92,-1.94 -3.60,-2.59 -3.09,-3.09 -2.59,-3.60 -1.94,-3.92 -1.30,-4.24 -0.59,-4.34 0.12,-4.43 0.82,-4.30 1.53,-4.16 2.15,-3.81 2.78,-3.46 3.26,-2.92 3.74,-2.39 4.02,-1.73 4.31,-1.07 4.36,-0.35 4.42,0.36 4.25,1.05 4.07,1.75 3.69,2.36 3.30,2.96 2.74,3.41 2.18,3.86 1.51,4.11 0.83,4.36 0.11,4.38 -0.60,4.40 -1.28,4.18 -1.97,3.97 -2.55,3.55 -3.14,3.13 -3.14,3.14 -3.14,3.14 -3.47,2.71 -3.80,2.29 -4.02,1.80 -4.24,1.32 -4.33,0.79 -4.43,0.26 -4.40,-0.26 -4.36,-0.80 -4.20,-1.31 -4.04,-1.82 -3.77,-2.28 -3.49,-2.73 -3.11,-3.11 -2.73,-3.49 -2.28,-3.77 -1.82,-4.05 -1.31,-4.20 -0.80,-4.36 -0.26,-4.40 0.26,-4.43 0.79,-4.33 1.32,-4.24 1.80,-4.02 2.29,-3.80 2.71,-3.47 3.14,-3.14 3.14,-3.14 L 3.14,-3.14 Z"></path></g><g transform="translate(141.99609375 98.2421875) rotate(0 0.62890625 0)" stroke="none"><path d="M1.02 -1.23 C0.9 -1.03, 0.9 0.29, 0.63 0.29 C0.36 0.3, -0.39 -1.35, -0.59 -1.19" stroke="none" stroke-width="0" fill="#ffc9c9" fill-rule="evenodd"></path><path fill="#fcc2d7" d="M 4.24,-1.32 Q 4.24,-1.32 4.30,-0.26 4.36,0.80 3.93,1.76 3.49,2.73 2.65,3.39 1.82,4.05 0.77,4.24 -0.26,4.43 -1.28,4.11 -2.29,3.80 -3.04,3.04 -3.80,2.29 -4.11,1.28 -4.43,0.26 -4.24,-0.77 -4.04,-1.82 -3.39,-2.65 -2.73,-3.49 -1.76,-3.93 -0.79,-4.36 0.26,-4.30 1.32,-4.23 2.23,-3.68 3.14,-3.13 3.69,-2.23 L 4.24,-1.32 Z"></path></g><g transform="translate(146.109375 98.2421875) rotate(0 1.10546875 0.443359375)" stroke="none"><path d="M0.2 0.59 C0.49 0.64, 1.97 0.88, 1.72 0.64 C1.47 0.41, -1.09 -0.94, -1.32 -0.83" stroke="none" stroke-width="0" fill="#ffc9c9" fill-rule="evenodd"></path><path fill="#fcc2d7" d="M 4.24,-1.32 Q 4.24,-1.32 4.30,-0.26 4.36,0.80 3.93,1.76 3.49,2.73 2.65,3.39 1.82,4.05 0.77,4.24 -0.26,4.43 -1.28,4.11 -2.29,3.80 -3.04,3.04 -3.80,2.29 -4.11,1.28 -4.43,0.26 -4.24,-0.77 -4.04,-1.82 -3.39,-2.65 -2.73,-3.49 -1.76,-3.93 -0.79,-4.36 0.26,-4.30 1.32,-4.23 2.23,-3.68 3.14,-3.13 3.69,-2.23 L 4.24,-1.32 Z"></path></g><g transform="translate(147.2109375 97.515625) rotate(0 -0.5 -6.744140625)" stroke="none"><path fill="#fcc2d7" d="M -5.06,0.78 Q -5.06,0.78 -5.43,-1.07 -5.79,-2.92 -6.21,-5.65 -6.63,-8.38 -6.72,-10.93 -6.82,-13.47 -6.67,-14.40 -6.52,-15.33 -6.08,-16.17 -5.64,-17.00 -4.95,-17.65 -4.27,-18.30 -3.41,-18.69 -2.56,-19.09 -1.62,-19.19 -0.69,-19.30 0.22,-19.10 1.14,-18.90 1.95,-18.41 2.76,-17.93 3.37,-17.21 3.98,-16.49 4.33,-15.62 4.68,-14.74 4.73,-13.80 4.78,-12.86 4.53,-11.95 4.28,-11.05 3.76,-10.26 3.23,-9.48 2.48,-8.91 1.73,-8.34 0.84,-8.04 -0.05,-7.74 -0.99,-7.74 -1.93,-7.74 -2.82,-8.04 -3.72,-8.34 -4.47,-8.90 -5.22,-9.47 -5.75,-10.25 -6.28,-11.03 -6.53,-11.94 -6.78,-12.85 -6.73,-13.79 -6.68,-14.73 -6.34,-15.60 -5.99,-16.48 -5.38,-17.20 -4.77,-17.92 -3.96,-18.40 -3.16,-18.89 -2.24,-19.09 -1.32,-19.30 -0.38,-19.20 0.55,-19.10 1.40,-18.70 2.26,-18.31 2.94,-17.66 3.63,-17.01 4.07,-16.18 4.51,-15.35 4.66,-14.42 4.82,-13.49 4.82,-13.49 4.82,-13.49 4.75,-11.14 4.69,-8.80 4.67,-6.66 4.64,-4.53 4.85,-2.65 5.06,-0.78 5.08,-0.16 5.10,0.45 4.97,1.05 4.84,1.66 4.57,2.21 4.30,2.77 3.91,3.25 3.52,3.72 3.02,4.09 2.52,4.45 1.95,4.69 1.38,4.93 0.77,5.02 0.16,5.12 -0.45,5.06 -1.06,5.01 -1.65,4.81 -2.23,4.61 -2.75,4.27 -3.27,3.94 -3.69,3.49 -4.12,3.04 -4.42,2.50 -4.73,1.96 -4.89,1.37 -5.06,0.78 -5.06,0.78 L -5.06,0.78 Z"></path></g><g transform="translate(145.3984375 105.42578125) rotate(0 0.00004999999998744897 0.00004999999998744897)" stroke="none"><path fill="#fcc2d7" d="M 3.14,-3.14 Q 3.14,-3.14 3.55,-2.55 3.97,-1.97 4.18,-1.28 4.40,-0.59 4.38,0.11 4.36,0.83 4.11,1.51 3.86,2.18 3.41,2.74 2.96,3.30 2.36,3.69 1.75,4.08 1.05,4.25 0.36,4.42 -0.35,4.36 -1.07,4.31 -1.73,4.02 -2.39,3.74 -2.92,3.26 -3.46,2.78 -3.81,2.15 -4.16,1.53 -4.30,0.82 -4.43,0.11 -4.34,-0.59 -4.24,-1.30 -3.92,-1.94 -3.60,-2.59 -3.09,-3.09 -2.59,-3.60 -1.94,-3.92 -1.30,-4.24 -0.59,-4.34 0.12,-4.43 0.82,-4.30 1.53,-4.16 2.15,-3.81 2.78,-3.46 3.26,-2.92 3.74,-2.39 4.02,-1.73 4.31,-1.07 4.36,-0.35 4.42,0.36 4.25,1.05 4.07,1.75 3.69,2.36 3.30,2.96 2.74,3.41 2.18,3.86 1.51,4.11 0.83,4.36 0.11,4.38 -0.60,4.40 -1.28,4.18 -1.97,3.97 -2.55,3.55 -3.14,3.13 -3.14,3.14 -3.14,3.14 -3.47,2.71 -3.80,2.29 -4.02,1.80 -4.24,1.32 -4.33,0.79 -4.43,0.26 -4.40,-0.26 -4.36,-0.80 -4.20,-1.31 -4.04,-1.82 -3.77,-2.28 -3.49,-2.73 -3.11,-3.11 -2.73,-3.49 -2.28,-3.77 -1.82,-4.05 -1.31,-4.20 -0.80,-4.36 -0.26,-4.40 0.26,-4.43 0.79,-4.33 1.32,-4.24 1.80,-4.02 2.29,-3.80 2.71,-3.47 3.14,-3.14 3.14,-3.14 L 3.14,-3.14 Z"></path></g><g transform="translate(142.03125 101.91796875) rotate(0 0.00004999999998744897 0.00004999999998744897)" stroke="none"><path fill="#fcc2d7" d="M 3.14,-3.14 Q 3.14,-3.14 3.55,-2.55 3.97,-1.97 4.18,-1.28 4.40,-0.59 4.38,0.11 4.36,0.83 4.11,1.51 3.86,2.18 3.41,2.74 2.96,3.30 2.36,3.69 1.75,4.08 1.05,4.25 0.36,4.42 -0.35,4.36 -1.07,4.31 -1.73,4.02 -2.39,3.74 -2.92,3.26 -3.46,2.78 -3.81,2.15 -4.16,1.53 -4.30,0.82 -4.43,0.11 -4.34,-0.59 -4.24,-1.30 -3.92,-1.94 -3.60,-2.59 -3.09,-3.09 -2.59,-3.60 -1.94,-3.92 -1.30,-4.24 -0.59,-4.34 0.12,-4.43 0.82,-4.30 1.53,-4.16 2.15,-3.81 2.78,-3.46 3.26,-2.92 3.74,-2.39 4.02,-1.73 4.31,-1.07 4.36,-0.35 4.42,0.36 4.25,1.05 4.07,1.75 3.69,2.36 3.30,2.96 2.74,3.41 2.18,3.86 1.51,4.11 0.83,4.36 0.11,4.38 -0.60,4.40 -1.28,4.18 -1.97,3.97 -2.55,3.55 -3.14,3.13 -3.14,3.14 -3.14,3.14 -3.47,2.71 -3.80,2.29 -4.02,1.80 -4.24,1.32 -4.33,0.79 -4.43,0.26 -4.40,-0.26 -4.36,-0.80 -4.20,-1.31 -4.04,-1.82 -3.77,-2.28 -3.49,-2.73 -3.11,-3.11 -2.73,-3.49 -2.28,-3.77 -1.82,-4.05 -1.31,-4.20 -0.80,-4.36 -0.26,-4.40 0.26,-4.43 0.79,-4.33 1.32,-4.24 1.80,-4.02 2.29,-3.80 2.71,-3.47 3.14,-3.14 3.14,-3.14 L 3.14,-3.14 Z"></path></g><g transform="translate(133.89453125 99.12109375) rotate(0 0.00004999999998744897 0.00004999999998744897)" stroke="none"><path fill="#fcc2d7" d="M 3.14,-3.14 Q 3.14,-3.14 3.55,-2.55 3.97,-1.97 4.18,-1.28 4.40,-0.59 4.38,0.11 4.36,0.83 4.11,1.51 3.86,2.18 3.41,2.74 2.96,3.30 2.36,3.69 1.75,4.08 1.05,4.25 0.36,4.42 -0.35,4.36 -1.07,4.31 -1.73,4.02 -2.39,3.74 -2.92,3.26 -3.46,2.78 -3.81,2.15 -4.16,1.53 -4.30,0.82 -4.43,0.11 -4.34,-0.59 -4.24,-1.30 -3.92,-1.94 -3.60,-2.59 -3.09,-3.09 -2.59,-3.60 -1.94,-3.92 -1.30,-4.24 -0.59,-4.34 0.12,-4.43 0.82,-4.30 1.53,-4.16 2.15,-3.81 2.78,-3.46 3.26,-2.92 3.74,-2.39 4.02,-1.73 4.31,-1.07 4.36,-0.35 4.42,0.36 4.25,1.05 4.07,1.75 3.69,2.36 3.30,2.96 2.74,3.41 2.18,3.86 1.51,4.11 0.83,4.36 0.11,4.38 -0.60,4.40 -1.28,4.18 -1.97,3.97 -2.55,3.55 -3.14,3.13 -3.14,3.14 -3.14,3.14 -3.47,2.71 -3.80,2.29 -4.02,1.80 -4.24,1.32 -4.33,0.79 -4.43,0.26 -4.40,-0.26 -4.36,-0.80 -4.20,-1.31 -4.04,-1.82 -3.77,-2.28 -3.49,-2.73 -3.11,-3.11 -2.73,-3.49 -2.28,-3.77 -1.82,-4.05 -1.31,-4.20 -0.80,-4.36 -0.26,-4.40 0.26,-4.43 0.79,-4.33 1.32,-4.24 1.80,-4.02 2.29,-3.80 2.71,-3.47 3.14,-3.14 3.14,-3.14 L 3.14,-3.14 Z"></path></g></svg>